<svg version="1.2" xmlns="http://www.w3.org/2000/svg" viewBox="0 0 250 250" width="250" height="250">
	<style>
		.s0 { fill: #010201 } 
		.s1 { fill: #03ae44 } 
		.s2 { fill: #04ac44 } 
		.s3 { fill: #04a942 } 
		.s4 { fill: #f6f6ef } 
		.s5 { fill: #04a641 } 
		.s6 { fill: #00ac41 } 
		.s7 { fill: #06a643 } 
		.s8 { fill: #119b45 } 
		.s9 { fill: #00a73f } 
		.s10 { fill: #f3f5ed } 
		.s11 { fill: #f2f2eb } 
		.s12 { fill: #f2f5ed } 
		.s13 { fill: #04aa43 } 
		.s14 { fill: #000201 } 
		.s15 { fill: #000c04 } 
		.s16 { fill: #bcbfbd } 
		.s17 { fill: #00ae42 } 
		.s18 { fill: #90170d } 
		.s19 { fill: #969695 } 
		.s20 { fill: #07752c } 
		.s21 { fill: #474945 } 
		.s22 { fill: #f4f6ee } 
		.s23 { fill: #049839 } 
		.s24 { fill: #0e6627 } 
		.s25 { fill: #575353 } 
		.s26 { fill: #3f5f40 } 
		.s27 { fill: #14b24f } 
		.s28 { fill: #94160d } 
		.s29 { fill: #116731 } 
		.s30 { fill: #006c28 } 
		.s31 { fill: #26904e } 
		.s32 { fill: #f7f7f0 } 
		.s33 { fill: #d5d4d4 } 
		.s34 { fill: #1a8b3e } 
		.s35 { fill: #57725e } 
		.s36 { fill: #87837c } 
		.s37 { fill: #9e140c } 
		.s38 { fill: #01a43f } 
		.s39 { fill: #882312 } 
		.s40 { fill: #006525 } 
		.s41 { fill: #108c36 } 
		.s42 { fill: #032a11 } 
		.s43 { fill: #04a23e } 
		.s44 { fill: #c3c8c4 } 
		.s45 { fill: #00762b } 
		.s46 { fill: #209144 } 
		.s47 { fill: #db0007 } 
		.s48 { fill: #acb2ae } 
		.s49 { fill: #147f33 } 
		.s50 { fill: #06461b } 
		.s51 { fill: #14431a } 
	</style>
	<path class="s0" d="m47 49c56.1 0 112.2 0 170 0 0 2.31 0 4.62 0 7-11.88 0-23.76 0-36 0 0 12.21 0 24.42 0 37 12.21 0 24.42 0 37 0 0-12.21 0-24.42 0-37 2.31 0 4.62 0 7 0 0 14.52 0 29.04 0 44-4.95 0-9.9 0-15 0 0 12.54 0 25.08 0 38 2.64 0 5.28 0 8 0 0 2.31 0 4.62 0 7 2.31 0 4.62 0 7 0 0 2.31 0 4.62 0 7-2.31 0-4.62 0-7 0 0 2.64 0 5.28 0 8-2.64 0-5.28 0-8 0 0 7.26 0 14.52 0 22 2.64 0 5.28 0 8 0 0 2.64 0 5.28 0 8 2.31 0 4.62 0 7 0 0 2.31 0 4.62 0 7-2.64 0-5.28 0-8 0 0 2.31 0 4.62 0 7-11.55 0-23.1 0-35 0q0.49 0.98 1 2c0.85 12.74 0.31 22.23-8.25 32.31-7.78 8.1-7.78 8.1-12.75 9.69-7.58-0.42-13.67-5.43-18.71-10.84-5.04-6.75-6.77-12.64-6.54-20.85q0.01-1.11 0.02-2.26c0.05-3.56 0.36-6.57 1.23-10.05-32.34 0-64.68 0-98 0 0-2.31 0-4.62 0-7-2.64 0-5.28 0-8 0 0-19.47 0-38.94 0-59-2.31 0-4.62 0-7 0 0-12.21 0-24.42 0-37 2.31 0 4.62 0 7 0 0-2.64 0-5.28 0-8 2.64 0 5.28 0 8 0 0-12.21 0-24.42 0-37 2.31 0 4.62 0 7 0 0-2.31 0-4.62 0-7z"/>
	<path class="s1" d="m47 49c30.36 0 60.72 0 92 0 0 31.68 0 63.36 0 96-32.67 0-65.34 0-99 0 0 17.16 0 34.32 0 52-2.64 0-5.28 0-8 0 0-19.47 0-38.94 0-59-2.31 0-4.62 0-7 0 0-12.21 0-24.42 0-37 2.31 0 4.62 0 7 0 0-2.64 0-5.28 0-8 2.64 0 5.28 0 8 0 0-12.21 0-24.42 0-37 2.31 0 4.62 0 7 0 0-2.31 0-4.62 0-7z"/>
	<path class="s2" d="m47 152c30.36 0 60.72 0 92 0 0 11.22 0 22.44 0 34q1.97-0.49 4-1 2.01 0.98 4 2c2.69 0.31 2.69 0.31 5.61 0.27q1.62 0 3.29 0 1.68-0.01 3.41-0.02 1.67 0.01 3.38 0.02c5.82-0.01 10.82-0.28 16.31-2.27q0.49 0.49 1 1c0.33-10.89 0.66-21.78 1-33 12.21 0 24.42 0 37 0 0 2.31 0 4.62 0 7-2.64 0-5.28 0-8 0 0 7.26 0 14.52 0 22 2.64 0 5.28 0 8 0 0 2.64 0 5.28 0 8-11.22 0-22.44 0-34 0q-0.49 1.97-1 4-0.98 1.48-2 3c-0.21 2.76-0.21 2.76-0.05 5.88q0.03 1.75 0.07 3.54 0.1 3.67 0.23 7.34c0.2 10.63-2.03 17.65-9.32 25.44-3.88 3.63-7.5 6.65-12.93 6.99-8.08-3.2-15.22-9.86-18.81-17.82-2.82-8.01-2.37-15.08-1.19-23.37 0.49-5.4 0.49-5.4-1.5-10.31q-0.74-0.83-1.5-1.69 0-1.48 0-3c-29.37 0-58.74 0-89 0 0-12.54 0-25.08 0-38z"/>
	<path class="s3" d="m180 56q0.49 0 1 0c0 12.21 0 24.42 0 37 12.21 0 24.42 0 37 0 0-12.21 0-24.42 0-37 2.31 0 4.62 0 7 0 0 14.52 0 29.04 0 44-4.95 0-9.9 0-15 0 0 12.54 0 25.08 0 38 2.64 0 5.28 0 8 0 0 2.31 0 4.62 0 7 2.31 0 4.62 0 7 0 0 2.31 0 4.62 0 7-2.31 0-4.62 0-7 0q-0.49-2.95-1-6c-18.31-0.5-18.31-0.5-37-1 0-29.37 0-58.74 0-89z"/>
	<path class="s4" d="m85 56c17.82 0 35.64 0 54 0 0 12.21 0 24.42 0 37-17.82 0-35.64 0-54 0 0-12.21 0-24.42 0-37z"/>
	<path class="s4" d="m55 160c27.72 0 55.44 0 84 0 0 7.26 0 14.52 0 22-27.72 0-55.44 0-84 0 0-7.26 0-14.52 0-22z"/>
	<path class="s5" d="m47 152c30.36 0 60.72 0 92 0 0 2.64 0 5.28 0 8-27.72 0-55.44 0-84 0 0 7.26 0 14.52 0 22 27.72 0 55.44 0 84 0 1 5 1 5-0.4 7.29-3.66 2.41-6.99 2.2-11.22 2.07-1.31-0.01-1.31-0.01-2.64-0.03q-4.3-0.06-8.6-0.16-2.98-0.04-5.97-0.08-7.85-0.12-15.7-0.28-8.01-0.14-16.03-0.26-15.72-0.24-31.44-0.55c0-12.54 0-25.08 0-38z"/>
	<path class="s6" d="m183 189c13.86 0.33 27.72 0.66 42 1 0 2.31 0 4.62 0 7-2.64 0-5.28 0-8 0 0 2.31 0 4.62 0 7-11.55 0-23.1 0-35 0q0.49 0.99 1 2c0.85 12.74 0.31 22.23-8.25 32.31-7.78 8.1-7.78 8.1-12.75 9.69-7.58-0.42-13.67-5.43-18.71-10.84-5.04-6.75-6.77-12.64-6.54-20.85q0.01-1.11 0.02-2.26c0.05-3.56 0.36-6.57 1.23-10.05-32.34 0-64.68 0-98 0 0-2.31 0-4.62 0-7q19.34-0.23 38.67-0.44 8.98-0.1 17.96-0.21 8.65-0.1 17.31-0.19 3.31-0.04 6.62-0.08 4.62-0.06 9.24-0.1 1.37-0.02 2.79-0.04 3.21-0.02 6.41 0.06c1 1 1 1 1.12 4.63-0.04 3.85-0.57 7.55-1.12 11.37-0.6 9.11 1.42 17.02 7.26 24.18 3.76 3.94 7.66 6.93 12.68 9.07 5.92-0.48 10.16-4.23 14.12-8.45 4.95-6.08 7.25-11.18 7.03-19.15q-0.03-1.76-0.06-3.58-0.09-3.71-0.2-7.41-0.02-1.76-0.05-3.57c-0.05-1.61-0.05-1.61-0.09-3.25 0.35-3.25 1.32-4.34 3.31-6.84q0-1.97 0-4z"/>
	<path class="s7" d="m177 188q1.97 0.99 4 2c-0.88 4.75-0.88 4.75-2 7q-0.14 2.22-0.13 4.44 0 1.17 0 2.37c0.05 2.37 0.05 2.37 1.13 5.19 0.87 9.24-0.24 17.58-5.61 25.32-3.95 4.73-8.07 8.96-14.26 10.3-7.07-1.41-11.92-6.9-15.88-12.64-7.15-11.29-4.39-24.39-2.25-36.98 4.92-0.17 8.5-0.25 13 2q-0.02 1.01-0.04 2.05-0.01 1.33-0.02 2.7-0.02 1.32-0.04 2.67c0.09 2.36 0.43 4.32 1.1 6.58q-1.48 0.49-3 1c-0.99 2.48-0.99 2.48-2 5 5.94 0 11.88 0 18 0q-0.99-1.97-2-4-1.97-0.49-4-1c0.66-4.29 1.32-8.58 2-13q-1.97-0.49-4-1 0-0.99 0-2c6.93-0.99 6.93-0.99 14-2 0.66-1.98 1.32-3.96 2-6z"/>
	<path class="s8" d="m141 185c1.1 0.49 1.1 0.49 2.22 0.98 5.42 1.46 10.64 1.31 16.22 1.27 1.66 0.01 1.66 0.01 3.35 0.02 5.79-0.01 10.75-0.29 16.21-2.27 2.48 2.97 2.48 2.97 5 6q-1.5 3-3 6-0.05 2.89 0.04 5.79 0.03 1.74 0.07 3.54 0.08 3.69 0.19 7.38c0.16 10.64-2.08 17.7-9.37 25.49-3.88 3.63-7.5 6.65-12.93 6.99-8.08-3.2-15.22-9.86-18.81-17.81-2.82-8.02-2.37-15.09-1.19-23.38 0.32-3.9 0.58-7.04-1.5-10.5q-0.74-0.74-1.5-1.5c1.37-2.95 2.99-5.44 5-8zm36 3c-0.66 1.98-1.32 3.96-2 6-4.62 0.66-9.24 1.32-14 2q0.49 1.48 1 3 1.48 0 3 0-0.21 2.13-0.44 4.25-0.12 1.18-0.24 2.39c-0.3 2.18-0.74 4.24-1.32 6.36q0.92 0.12 1.87 0.25c2.13 0.75 2.13 0.75 4.13 4.75-5.94 0-11.88 0-18 0q0.99-2.46 2-5 1.48-0.49 3-1c-0.25-0.83-0.25-0.83-0.5-1.67-0.56-2.6-0.6-4.93-0.56-7.58q0.01-1.33 0.02-2.7 0.02-1.01 0.04-2.05c-4.5-2.25-8.08-2.17-13-2-3.41 19.14-3.41 19.14 2.07 37.29 3.77 5.29 8.9 10.92 15.49 12.21 6.44-0.94 11.41-5.84 15.31-10.88 4.97-7.74 5.84-15.54 5.13-24.62-0.5-1.49-0.5-1.49-1-3q-0.17-2.25-0.19-4.5-0.02-1.15-0.04-2.34c0.23-2.16 0.23-2.16 2.23-5.16-0.31-2.65-0.31-2.65-1-5q-1.48-0.49-3-1z"/>
	<path class="s9" d="m40 197c32.34 0 64.68 0 98 0 0 2.31 0 4.62 0 7-32.34 0-64.68 0-98 0 0-2.31 0-4.62 0-7z"/>
	<path class="s10" d="m47 56c4.95 0 9.9 0 15 0 0 12.21 0 24.42 0 37-4.95 0-9.9 0-15 0 0-12.21 0-24.42 0-37z"/>
	<path class="s11" d="m150 81c8.25 0 16.5 0 25 0 0 9.9 0 19.8 0 30q-2.46 0-5 0 0 2.46 0 5c-6.6 0-13.2 0-20 0 0-3.3 0-6.6 0-10 6.6 0 13.2 0 20 0 0-4.95 0-9.9 0-15-6.6 0-13.2 0-20 0 0-3.3 0-6.6 0-10z"/>
	<path class="s12" d="m181 160c7.26 0 14.52 0 22 0 0 7.26 0 14.52 0 22-7.26 0-14.52 0-22 0 0-7.26 0-14.52 0-22z"/>
	<path class="s11" d="m140 121c9.9 0 19.8 0 30 0q0 2.46 0 5 2.46 0 5 0c0 8.25 0 16.5 0 25q-2.46 0-5 0 0 2.46 0 5-2.46 0-5 0c0-3.3 0-6.6 0-10q2.46 0 5 0c0-4.95 0-9.9 0-15-9.9 0-19.8 0-30 0 0-3.3 0-6.6 0-10z"/>
	<path class="s13" d="m142 195c4.92-0.17 8.5-0.25 13 2q-0.02 1.01-0.04 2.05-0.01 1.33-0.02 2.7-0.02 1.32-0.04 2.67c0.09 2.36 0.43 4.32 1.1 6.58q-2.46 0.49-5 1-0.12 1.6-0.25 3.25c-0.84 4.22-1.78 4.87-4.75 7.75-1.28 3.64-1.28 3.64-2 7-5.38-6.79-4.63-14.68-3.8-23.02 0.5-4.01 1.12-8 1.8-11.98z"/>
	<path class="s14" d="m183 189c13.86 0.33 27.72 0.66 42 1 0 2.31 0 4.62 0 7-14.19 0-28.38 0-43 0 0.33-2.64 0.66-5.28 1-8z"/>
	<path class="s15" d="m69 56c2.64 0 5.28 0 8 0 0 12.21 0 24.42 0 37-2.64 0-5.28 0-8 0 0-12.21 0-24.42 0-37z"/>
	<path class="s16" d="m141 185c1.1 0.49 1.1 0.49 2.22 0.98 5.42 1.46 10.64 1.31 16.22 1.27 1.66 0.01 1.66 0.01 3.35 0.02 5.79-0.01 10.75-0.29 16.21-2.27 2.48 2.97 2.48 2.97 5 6q-1.5 3-3 6-0.05 2.89 0.04 5.79 0.03 1.74 0.07 3.54 0.08 3.69 0.19 7.38c0.16 10.64-2.08 17.7-9.37 25.49-3.88 3.63-7.5 6.65-12.93 6.99-8.08-3.2-15.22-9.86-18.81-17.81-2.82-8.02-2.37-15.09-1.19-23.38 0.32-3.9 0.58-7.04-1.5-10.5q-0.74-0.74-1.5-1.5c1.37-2.95 2.99-5.44 5-8zm0 2c-1.76 1.62-1.76 1.62-3 4q0.46 1.16 0.93 2.36c1.3 4.44 1.1 8.21 0.94 12.8-0.75 15.48-0.75 15.48 6.13 28.84 5.87 6.24 5.87 6.24 13.56 9.5 6.44-0.94 11.41-5.84 15.31-10.88 4.97-7.74 5.84-15.54 5.13-24.62-0.5-1.49-0.5-1.49-1-3q-0.17-2.25-0.19-4.5-0.02-1.15-0.04-2.34c0.23-2.16 0.23-2.16 2.23-5.16 0-2.59 0-2.59-1-5-1.97-1.36-1.97-1.36-4-2q-0.49 0.49-1 1c-3.44 0.06-6.86 0.02-10.3-0.04-3.72-0.04-7.27 0.06-10.95 0.6-3.37 0.4-5.52 0.36-8.75-0.5q-1.14-0.29-2.31-0.59-0.83-0.23-1.69-0.47z"/>
	<path class="s0" d="m181 101c2.31 0 4.62 0 7 0 0 11.88 0 23.76 0 36-2.31 0-4.62 0-7 0 0-11.88 0-23.76 0-36z"/>
	<path class="s17" d="m181 49c11.88 0 23.76 0 36 0 0 2.31 0 4.62 0 7-11.88 0-23.76 0-36 0 0-2.31 0-4.62 0-7z"/>
	<path class="s18" d="m149 219q1.48 0.49 3 1-0.99 0.58-2 1.19c-2.25 1.65-2.25 1.65-2.38 4.37 0.16 2.62 0.16 2.62 2.38 4.44 3.04 0.25 3.04 0.25 6 0 1.31-1.1 1.31-1.1 1.31-3.81-0.02-3.3-0.02-3.3-2.31-5.57q-0.99-0.8-2-1.62 2.46 0.49 5 1 0.49 1.48 1 3 0.99 0 2 0 0.99-1.97 2-4c7.32-0.36 7.32-0.36 10 1.06 1.61 3.12 1.42 5.5 1 8.94-1.63 2.44-1.63 2.44-4 4-4.11 0.5-5.51 0.33-9-2q0-0.99 0-2-1.26 1.02-2.56 2.06c-4.14 2.33-5.93 2.16-10.44 0.94-2-2-2-2-2.31-5.94 0.05-2.82 0.08-3.75 1.81-6.06q0.74-0.49 1.5-1z"/>
	<path class="s19" d="m165 199q0.08 2.12 0.13 4.25 0.03 1.18 0.07 2.39c-0.22 2.57-0.91 4.15-2.2 6.36q2.46 0.49 5 1 0.49 1.97 1 4c-5.94 0-11.88 0-18 0q0.49-2.46 1-5 1.97-0.49 4-1-0.49-0.99-1-2c-0.9-7.79-0.9-7.79 1.63-11.19 3.33-1.14 5.21-0.17 8.37 1.19z"/>
	<path class="s20" d="m151 211q0.99 0.49 2 1-0.99 2.46-2 5c5.94 0 11.88 0 18 0-2.1-4.24-2.1-4.24-6-6 2.31-0.25 2.31-0.25 5 0 1.81 1.81 1.81 1.81 3 4q0 1.48 0 3-0.95 0.29-1.93 0.59-1.24 0.38-2.51 0.79-1.23 0.38-2.49 0.77c-2.25 0.66-2.25 0.66-3.07 2.85-2 0-2 0-3.63-1.5q-0.67-0.74-1.37-1.5c0.99 1.49 0.99 1.49 2 3 0.25 3.06 0.25 3.06 0 6-2 2-2 2-4.94 2.31-3.06-0.31-3.06-0.31-4.93-1.5-1.55-2.49-1.63-3.93-1.13-6.81 2-1.81 2-1.81 4-3q-0.99-0.99-2-2c0.57-5.57 0.57-5.57 2-7z"/>
	<path class="s21" d="m138 196q0.99 0.49 2 1c0.09 5.16-0.27 9.88-1 15-0.6 9.11 1.42 17.02 7.26 24.18 3.76 3.94 7.66 6.93 12.68 9.07 5.92-0.48 10.16-4.23 14.12-8.45 6.16-7.56 7.18-13.94 7.6-23.56 0.31-2.98 0.79-4.72 2.34-7.24 0.54 12.85 0.43 22.08-8.25 32.31-7.78 8.1-7.78 8.1-12.75 9.69-7.58-0.42-13.67-5.43-18.71-10.84-4.85-6.49-6.78-12.35-6.54-20.35q0.02-1.1 0.03-2.23c0.13-6.21 0.55-12.4 1.22-18.58z"/>
	<path class="s22" d="m47 101c7.26 0 14.52 0 22 0 0 2.31 0 4.62 0 7-7.26 0-14.52 0-22 0 0-2.31 0-4.62 0-7z"/>
	<path class="s23" d="m145 223q0.49 0 1 0 0.15 1.66 0.31 3.38 0.34 1.78 0.69 3.62c2.88 2.36 2.88 2.36 6.44 1.75 2.94-0.62 5.02-1.22 7.56-2.75q0 0.99 0 2 0.84 0.16 1.71 0.33 1.1 0.24 2.23 0.48 1.09 0.23 2.21 0.46 0.91 0.36 1.85 0.73 0.49 1.48 1 3c-12.41 3.09-12.41 3.09-17.38 1q-0.8-0.49-1.62-1 1.48 2.46 3 5c-4.46-2.01-7.65-4.65-10-9-0.2-3.15 0.24-5.95 1-9z"/>
	<path class="s24" d="m168.06 220.19c2.94 0.81 2.94 0.81 4.94 3.81-0.32 3.32-0.61 4.61-3 7-3 0.25-3 0.25-6 0-2-2-2-2-2.31-5.5q0.15-1.72 0.31-3.5c3-2 3-2 6.06-1.81z"/>
	<path class="s25" d="m182 206q0.49 0 1 0c0.54 12.85 0.43 22.08-8.25 32.31-3.76 3.92-7.61 7.7-12.75 9.69-3-0.19-3-0.19-5-1q0-0.49 0-1c0.84-0.2 0.84-0.2 1.69-0.41 8.39-2.37 13.93-6.74 18.25-14.34 2.47-4.8 3.24-8.79 3.56-14.19 0.44-7.55 0.44-7.55 1.5-11.06z"/>
	<path class="s26" d="m151 211q0.99 0.49 2 1-0.99 2.46-2 5c5.94 0 11.88 0 18 0-2.1-4.24-2.1-4.24-6-6 2.31-0.25 2.31-0.25 5 0 1.81 1.81 1.81 1.81 3 4q0 1.48 0 3-0.95 0.29-1.93 0.59-1.24 0.38-2.51 0.79-1.23 0.38-2.49 0.77c-2.25 0.66-2.25 0.66-3.07 2.85q-0.99 0-2 0-0.65-0.77-1.31-1.56-0.83-0.71-1.69-1.44c-2.65 0.23-2.65 0.23-5 1-2-3-2-3-1.69-6.13 0.69-2.87 0.69-2.87 1.69-3.87z"/>
	<path class="s27" d="m217 138q0.49 0 1 0c0 2.31 0 4.62 0 7 2.31 0 4.62 0 7 0 0 2.31 0 4.62 0 7-2.31 0-4.62 0-7 0-0.95-4.76-1.08-9.17-1-14z"/>
	<path class="s28" d="m159 197c3.19 0.88 3.19 0.88 6 2q0 2.46 0 5c-3.3 0-6.6 0-10 0 0.31-2.38 0.31-2.38 1-5q1.48-0.99 3-2z"/>
	<path class="s29" d="m181 195q0.49 0.99 1 2c11.55 0 23.1 0 35 0q0 0.49 0 1c-17.32 0.5-17.32 0.5-35 1 0 3.63 0 7.26 0 11-1.84-3.68-2.26-4.79-2.19-8.63 0.01-1.16 0.01-1.16 0.02-2.35 0.17-2.02 0.17-2.02 1.17-4.02z"/>
	<path class="s30" d="m142 191q1.48 0 3 0 0 0.99 0 2c4.95 0 9.9 0 15 0q0 1.48 0 3c-5.48 1.17-10.78 1.35-16-1-1.26-2.08-1.26-2.08-2-4z"/>
	<path class="s31" d="m141 187c4.45 0.99 4.45 0.99 9 2q0 0.49 0 1c-2.64 0.33-5.28 0.66-8 1q0.99 1.97 2 4-0.99 0-2 0c0 3.3 0 6.6 0 10q-0.49 0-1 0-0.51-2.62-1-5.25-0.28-1.45-0.56-2.95c-0.66-4.21-0.85-6.19 1.56-9.8z"/>
	<path class="s17" d="m218 190c2.31 0 4.62 0 7 0 0 2.31 0 4.62 0 7-2.31 0-4.62 0-7 0 0-2.31 0-4.62 0-7z"/>
	<path class="s32" d="m77 101c2.31 0 4.62 0 7 0 0 2.31 0 4.62 0 7-2.31 0-4.62 0-7 0 0-2.31 0-4.62 0-7z"/>
	<path class="s33" d="m162 211c2.94 0.75 2.94 0.75 6 2q0.49 1.97 1 4c-4.62 0-9.24 0-14 0q0.49-1.48 1-3 1.2-0.18 2.44-0.38 1.26-0.3 2.56-0.62 0.49-0.99 1-2z"/>
	<path class="s34" d="m145 223q0.49 0 1 0 0.09 1.57 0.19 3.19c0.96 4.5 2.5 5.75 5.81 8.81 0.75 2.19 0.75 2.19 1 4q0.49 0.99 1 2c-4.46-2.01-7.65-4.65-10-9-0.2-3.15 0.24-5.95 1-9z"/>
	<path class="s35" d="m163 211c2.31-0.25 2.31-0.25 5 0 1.81 1.81 1.81 1.81 3 4q0 1.48 0 3c-8.72 2.51-8.72 2.51-13 1q-0.99-0.99-2-2c4.29 0 8.58 0 13 0-2.1-4.24-2.1-4.24-6-6z"/>
	<path class="s36" d="m155 204c3.3 0 6.6 0 10 0q0 1.97 0 4c-3.3 0.33-6.6 0.66-10 1q0-2.46 0-5z"/>
	<path class="s37" d="m149 219q1.48 0.49 3 1-0.99 0.58-2 1.19c-2.25 1.65-2.25 1.65-2.38 4.37 0.16 2.62 0.16 2.62 2.38 4.44 4.15 0.29 4.15 0.29 8-1q-0.49 1.48-1 3c-6.19 1.31-6.19 1.31-9.44 0.06-2.09-2.76-2.06-4.79-1.9-8.19 0.34-1.87 0.34-1.87 1.84-3.87q0.74-0.49 1.5-1z"/>
	<path class="s38" d="m145 190q2.37-0.12 4.75-0.19c1.32-0.05 1.32-0.05 2.67-0.1 3.03 0.34 4.34 1.29 6.58 3.29-5.02 1.13-8.98 0.78-14 0q0-1.48 0-3z"/>
	<path class="s39" d="m163 219c7.32-0.36 7.32-0.36 10 1.06 1.58 3.07 1.36 5.56 1 8.94-1.5 1.94-1.5 1.94-3 3 0-3 0-3 0.69-5.5 0.56-2.49 0.56-2.49-0.75-4.38-2.85-1.65-4.84-0.88-7.94-0.12q0-1.48 0-3z"/>
	<path class="s40" d="m174 190q1.48 0.99 3 2c-0.99 1.49-0.99 1.49-2 3-3.04 0.51-3.04 0.51-6.63 0.69q-1.77 0.1-3.6 0.2c-1.37 0.05-1.37 0.05-2.77 0.11q0-0.99 0-2 1.39-0.22 2.81-0.44c3.2-0.48 3.2-0.48 6.19-1.56q1.48 0.49 3 1 0-1.48 0-3z"/>
	<path class="s41" d="m168.19 220.38q1.38 0.3 2.81 0.62 0.49 1.97 1 4c-1.98-0.66-3.96-1.32-6-2q-0.49 0.99-1 2-1.48 0-3 0 0-1.48 0-3c3-2 3-2 6.19-1.62z"/>
	<path class="s42" d="m166 222q1.97 0.99 4 2 0 1.48 0 3-2.95 0-6 0-0.49-0.99-1-2 0.99 0 2 0 0.49-1.48 1-3z"/>
	<path class="s43" d="m152.06 220.94c1.46 0.03 1.46 0.03 2.94 0.06q-0.49 1.48-1 3-1.2 0.18-2.44 0.38c-1.27 0.3-1.27 0.3-2.56 0.62q-0.49 0.99-1 2-0.06-2.5 0-5c1-1 1-1 4.06-1.06z"/>
	<path class="s44" d="m155.56 210.94c1.21 0.03 1.21 0.03 2.44 0.06q0.49 0.99 1 2-2.46 0.99-5 2 0 0.99 0 2-1.48 0-3 0c1.07-5.98 1.07-5.98 4.56-6.06z"/>
	<path class="s45" d="m169 233q0.49 1.48 1 3c-2.97 0.66-5.94 1.32-9 2 1-3 1-3 2.88-4.19 2.12-0.81 2.12-0.81 5.12-0.81z"/>
	<path class="s46" d="m174 223c2.39 2.39 2.76 3.66 3 7-1.44 1.81-1.44 1.81-3 3-1.24-3.58-0.75-6.34 0-10z"/>
	<path class="s47" d="m160 199q1.97 0.99 4 2 0 1.48 0 3-2.95 0-6 0 0.99-2.46 2-5z"/>
	<path class="s48" d="m156 208c2.64 0 5.28 0 8 0q-0.99 1.97-2 4c-1.98-0.66-3.96-1.32-6-2q0-0.99 0-2z"/>
	<path class="s49" d="m159.19 196.31q0.89 0.34 1.81 0.69c-1.21 0.53-1.21 0.53-2.44 1.06-2.95 1.8-2.95 1.8-3.37 5.63q-0.09 1.63-0.19 3.31-0.49 0-1 0c-0.36-7.4-0.36-7.4 1.25-10.06 1.75-0.94 1.75-0.94 3.94-0.63z"/>
	<path class="s50" d="m164 228q2.46 0 5 0 0.49 1.48 1 3-2.95 0-6 0 0-1.48 0-3z"/>
	<path class="s51" d="m147 223q0.49 1.97 1 4 1.97-0.49 4-1-0.49 2.46-1 5c-2-1.19-2-1.19-4-3-0.25-2.69-0.25-2.69 0-5z"/>
</svg>